<?xml version="1.0" standalone="no"?>
<!DOCTYPE svg PUBLIC "-//W3C//DTD SVG 20010904//EN"
 "http://www.w3.org/TR/2001/REC-SVG-20010904/DTD/svg10.dtd">
<svg version="1.0" xmlns="http://www.w3.org/2000/svg"
 width="277.000000pt" height="277.000000pt" viewBox="0 0 277.000000 277.000000"
 preserveAspectRatio="xMidYMid meet">
<metadata>
Created by potrace 1.14, written by Peter Selinger 2001-2017
</metadata>
<g transform="translate(0.000000,277.000000) scale(0.100000,-0.100000)"
fill="#000000" stroke="none">
<path d="M402 2559 c-109 -38 -167 -73 -242 -148 -105 -105 -175 -275 -148
-357 28 -85 142 -112 206 -48 7 7 25 44 41 83 50 123 119 189 248 237 95 35
107 42 126 74 36 61 12 146 -50 175 -43 21 -87 17 -181 -16z"/>
<path d="M1118 2568 c-196 -34 -230 -305 -49 -397 35 -19 62 -20 364 -21 365
-1 382 -2 487 -36 190 -63 339 -230 376 -421 23 -120 19 -573 -6 -669 -26
-102 -61 -164 -135 -242 -56 -60 -76 -73 -157 -107 l-93 -39 -395 -3 -395 -4
-51 -25 c-34 -16 -61 -38 -80 -67 -25 -37 -29 -51 -29 -119 0 -69 3 -80 30
-120 17 -23 51 -54 75 -68 l45 -25 455 1 c406 0 463 2 525 19 150 39 276 114
400 239 134 135 224 304 263 496 17 81 20 139 21 400 0 390 -12 470 -99 657
-98 211 -262 368 -490 472 -36 16 -170 60 -170 56 0 -2 -15 1 -32 6 -18 5 -73
12 -123 15 -136 9 -687 10 -737 2z"/>
<path d="M604 2123 c-12 -2 -40 -19 -61 -38 -60 -51 -75 -126 -44 -207 8 -20
88 -106 399 -426 39 -42 72 -80 72 -85 0 -5 -103 -111 -230 -234 -177 -174
-233 -235 -245 -268 -45 -117 49 -235 176 -222 66 7 66 8 319 251 58 55 168
160 244 231 88 82 145 144 156 169 21 45 19 109 -3 152 -15 28 -611 629 -653
659 -22 15 -91 24 -130 18z"/>
<path d="M70 799 c-43 -17 -65 -57 -64 -119 3 -104 71 -239 166 -330 81 -77
266 -160 358 -160 37 0 88 35 106 74 34 71 -11 153 -97 176 -68 19 -137 57
-190 107 -45 42 -67 79 -114 190 -26 63 -95 89 -165 62z"/>
</g>
</svg>
